<svg width="21" height="20" viewBox="0 0 21 20" fill="none" xmlns="http://www.w3.org/2000/svg">
<g clip-path="url(#clip0_44_36)">
<path fill-rule="evenodd" clip-rule="evenodd" d="M10.5002 0C4.97524 0 0.500244 4.475 0.500244 10C0.500244 14.425 3.36274 18.1625 7.33774 19.4875C7.83774 19.575 8.02524 19.275 8.02524 19.0125C8.02524 18.775 8.01274 17.9875 8.01274 17.15C5.50024 17.6125 4.85024 16.5375 4.65024 15.975C4.53774 15.6875 4.05024 14.8 3.62524 14.5625C3.27524 14.375 2.77524 13.9125 3.61274 13.9C4.40024 13.8875 4.96274 14.625 5.15024 14.925C6.05024 16.4375 7.48774 16.0125 8.06274 15.75C8.15024 15.1 8.41274 14.6625 8.70024 14.4125C6.47524 14.1625 4.15024 13.3 4.15024 9.475C4.15024 8.3875 4.53774 7.4875 5.17524 6.7875C5.07524 6.5375 4.72524 5.5125 5.27524 4.1375C5.27524 4.1375 6.11274 3.875 8.02524 5.1625C8.82524 4.9375 9.67524 4.825 10.5252 4.825C11.3752 4.825 12.2252 4.9375 13.0252 5.1625C14.9377 3.8625 15.7752 4.1375 15.7752 4.1375C16.3252 5.5125 15.9752 6.5375 15.8752 6.7875C16.5127 7.4875 16.9002 8.375 16.9002 9.475C16.9002 13.3125 14.5627 14.1625 12.3377 14.4125C12.7002 14.725 13.0127 15.325 13.0127 16.2625C13.0127 17.6 13.0002 18.675 13.0002 19.0125C13.0002 19.275 13.1877 19.5875 13.6877 19.4875C15.6729 18.8173 17.3979 17.5414 18.62 15.8395C19.842 14.1375 20.4996 12.0952 20.5002 10C20.5002 4.475 16.0252 0 10.5002 0Z" fill="white"/>
</g>
<defs>
<clipPath id="clip0_44_36">
<rect width="20" height="20" fill="white" transform="translate(0.500244)"/>
</clipPath>
</defs>
</svg>
