<svg width="17" height="20" viewBox="0 0 17 20" fill="none" xmlns="http://www.w3.org/2000/svg">
<path d="M9.78691 8.20837C9.10433 7.41683 8.17871 6.97217 7.21358 6.97217C6.24846 6.97217 5.32284 7.41683 4.64025 8.20837L2.06608 11.1937C1.38348 11.9856 1 13.0596 1 14.1795C1 15.2994 1.38348 16.3734 2.06608 17.1653C2.74868 17.9572 3.67449 18.4021 4.63983 18.4021C5.60518 18.4021 6.53098 17.9572 7.21358 17.1653L8.50025 15.6727" stroke="#FCFCFC" stroke-width="1.66667" stroke-linecap="round" stroke-linejoin="round"/>
<path d="M7.21362 11.1937C7.89621 11.9853 8.82183 12.4299 9.78696 12.4299C10.7521 12.4299 11.6777 11.9853 12.3603 11.1937L14.9345 8.20839C15.6171 7.4165 16.0005 6.34247 16.0005 5.22257C16.0005 4.10268 15.6171 3.02865 14.9345 2.23676C14.2519 1.44488 13.326 1 12.3607 1C11.3954 1 10.4696 1.44488 9.78696 2.23676L8.50029 3.72943" stroke="#FCFCFC" stroke-width="1.66667" stroke-linecap="round" stroke-linejoin="round"/>
</svg>
